<svg width="132" height="109" viewBox="0 0 132 109" fill="none" xmlns="http://www.w3.org/2000/svg">
<path d="M27.0018 46C19.8212 46 14 51.5944 14 58.4952C14 65.396 19.8212 70.9904 27.0018 70.9904C27.3935 70.9904 27.7837 70.9735 28.172 70.94C28.533 70.9088 28.8909 70.8613 29.246 70.8017L29.3825 70.7785C35.9843 69.5945 40.5618 63.7733 39.9443 57.3463C39.3268 50.9194 33.7176 46.002 27.0018 46V46ZM25.9572 70.1133H25.9265C25.5894 70.0846 25.2549 70.0413 24.9233 69.9857C24.9042 69.9825 24.8852 69.9805 24.8665 69.977C24.5423 69.9213 24.2215 69.8521 23.9039 69.7714L23.8271 69.7525C23.5173 69.6717 23.2108 69.578 22.9089 69.4739C22.8776 69.4631 22.846 69.4535 22.8147 69.4423C22.5186 69.3378 22.2279 69.2207 21.9416 69.094C21.906 69.0787 21.8705 69.0641 21.8349 69.0478C21.5541 68.9229 21.2788 68.7822 21.0088 68.6341C20.9707 68.6134 20.9322 68.5926 20.8941 68.5721C20.6283 68.423 20.3686 68.2632 20.1138 68.0944C20.0753 68.0685 20.0364 68.0435 19.9981 68.0177C19.7477 67.8471 19.5037 67.6659 19.2661 67.4763L19.2007 67.4214V63.9098C19.2039 61.3806 21.3363 59.3313 23.968 59.3282H30.0355C32.6672 59.3313 34.7996 61.3806 34.8028 63.9098V67.4218L34.7453 67.468C34.503 67.6624 34.2543 67.8463 33.9989 68.0199C33.965 68.0427 33.9307 68.0645 33.8971 68.0869C33.6393 68.2589 33.3752 68.4208 33.1048 68.5729C33.0709 68.5918 33.0362 68.6097 33.0026 68.6284C32.7285 68.7783 32.4498 68.9199 32.1656 69.0474C32.1331 69.062 32.1003 69.0756 32.0672 69.0891C31.7786 69.217 31.4853 69.3347 31.1871 69.4401C31.1575 69.4507 31.1277 69.4598 31.1004 69.4698C30.7969 69.5743 30.4892 69.6689 30.1777 69.75L30.103 69.7679C29.7849 69.8487 29.4639 69.9182 29.1393 69.9741C29.1207 69.9774 29.1021 69.9796 29.0834 69.9825C28.7514 70.0382 28.4164 70.0815 28.0791 70.1104H28.0484C27.7018 70.1391 27.3549 70.1545 27.0039 70.1545C26.6528 70.1545 26.3032 70.1419 25.9572 70.1133V70.1133ZM35.6696 66.6496V63.9098C35.666 60.9208 33.1456 58.4987 30.0355 58.4952H23.968C20.8579 58.4987 18.3375 60.9208 18.3339 63.9098V66.6492C13.6661 62.0707 13.7181 54.73 18.4503 50.2129C23.1825 45.696 30.821 45.696 35.5532 50.2129C40.2854 54.73 40.3375 62.0707 35.6696 66.6492V66.6496Z" fill="white"/>
<path d="M27.0016 49.332C24.608 49.332 22.6677 51.1968 22.6677 53.4971C22.6677 55.7974 24.608 57.6622 27.0016 57.6622C29.3952 57.6622 31.3356 55.7974 31.3356 53.4971C31.333 51.1978 29.3942 49.3345 27.0016 49.332ZM27.0016 56.8291C25.0867 56.8291 23.5345 55.3374 23.5345 53.4971C23.5345 51.6568 25.0867 50.165 27.0016 50.165C28.9166 50.165 30.4688 51.6568 30.4688 53.4971C30.4667 55.3364 28.9155 56.8271 27.0016 56.8291Z" fill="white"/>
<line x1="52" y1="70.5" x2="106" y2="70.5" stroke="white"/>
<path d="M55.71 65V52.148H57.654V63.326H63.144V65H55.71ZM73.6944 60.14C73.6944 61.748 73.2804 62.99 72.4524 63.866C71.6244 64.742 70.5084 65.18 69.1044 65.18C68.2284 65.18 67.4484 64.982 66.7644 64.586C66.0924 64.19 65.5584 63.62 65.1624 62.876C64.7784 62.12 64.5864 61.208 64.5864 60.14C64.5864 58.532 64.9944 57.296 65.8104 56.432C66.6264 55.556 67.7424 55.118 69.1584 55.118C70.0464 55.118 70.8264 55.316 71.4984 55.712C72.1824 56.096 72.7164 56.66 73.1004 57.404C73.4964 58.148 73.6944 59.06 73.6944 60.14ZM66.5484 60.14C66.5484 61.232 66.7524 62.084 67.1604 62.696C67.5804 63.308 68.2404 63.614 69.1404 63.614C70.0404 63.614 70.6944 63.308 71.1024 62.696C71.5224 62.084 71.7324 61.232 71.7324 60.14C71.7324 59.036 71.5224 58.19 71.1024 57.602C70.6824 57.002 70.0224 56.702 69.1224 56.702C68.2224 56.702 67.5684 57.002 67.1604 57.602C66.7524 58.19 66.5484 59.036 66.5484 60.14ZM79.4611 55.118C80.7451 55.118 81.7351 55.604 82.4311 56.576H82.5211L82.7371 55.298H84.2851V65.126C84.2851 66.506 83.9131 67.55 83.1691 68.258C82.4371 68.966 81.3151 69.32 79.8031 69.32C79.0951 69.32 78.4471 69.272 77.8591 69.176C77.2831 69.08 76.7491 68.93 76.2571 68.726V67.052C77.2891 67.556 78.5071 67.808 79.9111 67.808C80.7031 67.808 81.3151 67.58 81.7471 67.124C82.1791 66.68 82.3951 66.05 82.3951 65.234V64.91C82.3951 64.754 82.4011 64.55 82.4131 64.298C82.4251 64.046 82.4371 63.854 82.4491 63.722H82.3771C82.0531 64.226 81.6451 64.598 81.1531 64.838C80.6611 65.066 80.0971 65.18 79.4611 65.18C78.2371 65.18 77.2771 64.742 76.5811 63.866C75.8971 62.978 75.5551 61.748 75.5551 60.176C75.5551 58.616 75.8971 57.386 76.5811 56.486C77.2771 55.574 78.2371 55.118 79.4611 55.118ZM79.8571 56.702C79.1011 56.702 78.5191 57.002 78.1111 57.602C77.7151 58.202 77.5171 59.066 77.5171 60.194C77.5171 61.322 77.7151 62.18 78.1111 62.768C78.5191 63.356 79.1131 63.65 79.8931 63.65C80.7811 63.65 81.4291 63.41 81.8371 62.93C82.2571 62.438 82.4671 61.64 82.4671 60.536V60.176C82.4671 58.94 82.2571 58.052 81.8371 57.512C81.4171 56.972 80.7571 56.702 79.8571 56.702ZM88.2473 51.608C88.5353 51.608 88.7873 51.692 89.0033 51.86C89.2193 52.028 89.3273 52.31 89.3273 52.706C89.3273 53.09 89.2193 53.372 89.0033 53.552C88.7873 53.72 88.5353 53.804 88.2473 53.804C87.9353 53.804 87.6713 53.72 87.4553 53.552C87.2513 53.372 87.1493 53.09 87.1493 52.706C87.1493 52.31 87.2513 52.028 87.4553 51.86C87.6713 51.692 87.9353 51.608 88.2473 51.608ZM89.1833 55.298V65H87.2753V55.298H89.1833ZM97.0935 55.118C98.2215 55.118 99.0855 55.4 99.6855 55.964C100.286 56.528 100.586 57.434 100.586 58.682V65H98.6955V58.952C98.6955 57.44 98.0295 56.684 96.6975 56.684C95.7015 56.684 95.0175 56.978 94.6455 57.566C94.2735 58.154 94.0875 59 94.0875 60.104V65H92.1795V55.298H93.6915L93.9615 56.594H94.0695C94.3815 56.09 94.8075 55.718 95.3475 55.478C95.8995 55.238 96.4815 55.118 97.0935 55.118Z" fill="white"/>
<path d="M55.71 65H54.71V66H55.71V65ZM55.71 52.148V51.148H54.71V52.148H55.71ZM57.654 52.148H58.654V51.148H57.654V52.148ZM57.654 63.326H56.654V64.326H57.654V63.326ZM63.144 63.326H64.144V62.326H63.144V63.326ZM63.144 65V66H64.144V65H63.144ZM56.71 65V52.148H54.71V65H56.71ZM55.71 53.148H57.654V51.148H55.71V53.148ZM56.654 52.148V63.326H58.654V52.148H56.654ZM57.654 64.326H63.144V62.326H57.654V64.326ZM62.144 63.326V65H64.144V63.326H62.144ZM63.144 64H55.71V66H63.144V64ZM72.4524 63.866L73.1791 64.5529L72.4524 63.866ZM66.7644 64.586L66.2567 65.4476L66.2634 65.4514L66.7644 64.586ZM65.1624 62.876L64.2708 63.3289L64.2751 63.3374L64.2796 63.3458L65.1624 62.876ZM65.8104 56.432L66.5374 57.1186L66.5421 57.1136L65.8104 56.432ZM71.4984 55.712L70.9907 56.5735L70.9997 56.5789L71.0089 56.584L71.4984 55.712ZM73.1004 57.404L72.2117 57.8627L72.2176 57.8738L73.1004 57.404ZM67.1604 62.696L66.3283 63.2507L66.3359 63.2618L67.1604 62.696ZM71.1024 62.696L70.2778 62.1301L70.2703 62.1413L71.1024 62.696ZM71.1024 57.602L70.2831 58.1755L70.2887 58.1832L71.1024 57.602ZM67.1604 57.602L67.982 58.1721L67.9873 58.1643L67.1604 57.602ZM72.6944 60.14C72.6944 61.5799 72.3261 62.5438 71.7257 63.1791L73.1791 64.5529C74.2346 63.4362 74.6944 61.9161 74.6944 60.14H72.6944ZM71.7257 63.1791C71.118 63.822 70.2828 64.18 69.1044 64.18V66.18C70.734 66.18 72.1308 65.662 73.1791 64.5529L71.7257 63.1791ZM69.1044 64.18C68.3848 64.18 67.7811 64.0191 67.2654 63.7206L66.2634 65.4514C67.1157 65.9449 68.072 66.18 69.1044 66.18V64.18ZM67.2721 63.7245C66.7716 63.4295 66.3618 63.0011 66.0451 62.4062L64.2796 63.3458C64.755 64.2389 65.4132 64.9505 66.2567 65.4475L67.2721 63.7245ZM66.054 62.4231C65.7573 61.8391 65.5864 61.0905 65.5864 60.14H63.5864C63.5864 61.3255 63.7995 62.4009 64.2708 63.3289L66.054 62.4231ZM65.5864 60.14C65.5864 58.6955 65.951 57.7395 66.5374 57.1186L65.0834 55.7454C64.0378 56.8525 63.5864 58.3685 63.5864 60.14H65.5864ZM66.5421 57.1136C67.1344 56.4778 67.9647 56.118 69.1584 56.118V54.118C67.52 54.118 66.1184 54.6342 65.0787 55.7504L66.5421 57.1136ZM69.1584 56.118C69.893 56.118 70.4929 56.2802 70.9907 56.5735L72.0061 54.8505C71.1599 54.3518 70.1998 54.118 69.1584 54.118V56.118ZM71.0089 56.584C71.5106 56.8657 71.9112 57.2802 72.2118 57.8626L73.989 56.9454C73.5216 56.0398 72.8542 55.3263 71.9879 54.84L71.0089 56.584ZM72.2176 57.8738C72.518 58.4382 72.6944 59.179 72.6944 60.14H74.6944C74.6944 58.941 74.4748 57.8578 73.9831 56.9342L72.2176 57.8738ZM65.5484 60.14C65.5484 61.3393 65.7697 62.4128 66.3283 63.2507L67.9924 62.1413C67.7351 61.7552 67.5484 61.1247 67.5484 60.14H65.5484ZM66.3359 63.2618C66.9834 64.2053 67.9906 64.614 69.1404 64.614V62.614C68.4902 62.614 68.1774 62.4107 67.9849 62.1302L66.3359 63.2618ZM69.1404 64.614C70.2894 64.614 71.2982 64.2051 71.9344 63.2507L70.2703 62.1413C70.0906 62.4109 69.7914 62.614 69.1404 62.614V64.614ZM71.9269 63.2618C72.5034 62.4218 72.7324 61.3438 72.7324 60.14H70.7324C70.7324 61.1202 70.5414 61.7462 70.2779 62.1302L71.9269 63.2618ZM72.7324 60.14C72.7324 58.9308 72.5059 57.8465 71.9161 57.0208L70.2887 58.1832C70.5388 58.5335 70.7324 59.1412 70.7324 60.14H72.7324ZM71.9216 57.0285C71.2708 56.0988 70.2643 55.702 69.1224 55.702V57.702C69.7804 57.702 70.0939 57.9052 70.2832 58.1755L71.9216 57.0285ZM69.1224 55.702C67.9814 55.702 66.9732 56.0989 66.3335 57.0397L67.9873 58.1643C68.1636 57.9051 68.4634 57.702 69.1224 57.702V55.702ZM66.3388 57.0319C65.7672 57.8557 65.5484 58.9353 65.5484 60.14H67.5484C67.5484 59.1367 67.7376 58.5243 67.982 58.1721L66.3388 57.0319ZM82.4311 56.576L81.6181 57.1582L81.9173 57.576H82.4311V56.576ZM82.5211 56.576V57.576H83.3663L83.5072 56.7427L82.5211 56.576ZM82.7371 55.298V54.298H81.892L81.7511 55.1313L82.7371 55.298ZM84.2851 55.298H85.2851V54.298H84.2851V55.298ZM83.1691 68.258L82.4798 67.5336L82.4739 67.5392L83.1691 68.258ZM77.8591 69.176L77.6947 70.1624L77.698 70.1629L77.8591 69.176ZM76.2571 68.726H75.2571V69.3939L75.8741 69.6497L76.2571 68.726ZM76.2571 67.052L76.696 66.1534L75.2571 65.4507V67.052H76.2571ZM81.7471 67.124L81.0304 66.4266L81.0212 66.4363L81.7471 67.124ZM82.4131 64.298L83.412 64.3456L83.412 64.3456L82.4131 64.298ZM82.4491 63.722L83.445 63.8125L83.5442 62.722H82.4491V63.722ZM82.3771 63.722V62.722H81.8312L81.536 63.1812L82.3771 63.722ZM81.1531 64.838L81.5736 65.7453L81.5826 65.7411L81.5916 65.7368L81.1531 64.838ZM76.5811 63.866L75.7889 64.4762L75.7935 64.4822L75.7982 64.4881L76.5811 63.866ZM76.5811 56.486L75.7862 55.8793L75.785 55.8809L76.5811 56.486ZM78.1111 57.602L77.2841 57.0396L77.2765 57.0512L78.1111 57.602ZM78.1111 62.768L77.2816 63.3267L77.2896 63.3381L78.1111 62.768ZM81.8371 62.93L81.0766 62.2807L81.0752 62.2824L81.8371 62.93ZM81.8371 57.512L81.0478 58.1259L81.8371 57.512ZM79.4611 56.118C80.4506 56.118 81.1256 56.4704 81.6181 57.1582L83.2442 55.9938C82.3447 54.7376 81.0397 54.118 79.4611 54.118V56.118ZM82.4311 57.576H82.5211V55.576H82.4311V57.576ZM83.5072 56.7427L83.7232 55.4647L81.7511 55.1313L81.5351 56.4093L83.5072 56.7427ZM82.7371 56.298H84.2851V54.298H82.7371V56.298ZM83.2851 55.298V65.126H85.2851V55.298H83.2851ZM83.2851 65.126C83.2851 66.3299 82.9643 67.0725 82.4798 67.5336L83.8585 68.9824C84.862 68.0275 85.2851 66.6821 85.2851 65.126H83.2851ZM82.4739 67.5392C82.0018 67.9958 81.1799 68.32 79.8031 68.32V70.32C81.4504 70.32 82.8725 69.9362 83.8644 68.9768L82.4739 67.5392ZM79.8031 68.32C79.1394 68.32 78.5462 68.2749 78.0203 68.1891L77.698 70.1629C78.3481 70.2691 79.0509 70.32 79.8031 70.32V68.32ZM78.0235 68.1896C77.5154 68.1049 77.0555 67.9745 76.6402 67.8023L75.8741 69.6497C76.4428 69.8855 77.0508 70.0551 77.6947 70.1624L78.0235 68.1896ZM77.2571 68.726V67.052H75.2571V68.726H77.2571ZM75.8183 67.9506C77.014 68.5345 78.3883 68.808 79.9111 68.808V66.808C78.626 66.808 77.5643 66.5775 76.696 66.1534L75.8183 67.9506ZM79.9111 68.808C80.9016 68.808 81.8056 68.5163 82.4731 67.8117L81.0212 66.4363C80.8247 66.6437 80.5046 66.808 79.9111 66.808V68.808ZM82.4639 67.8214C83.1294 67.1373 83.3951 66.2251 83.3951 65.234H81.3951C81.3951 65.8749 81.2289 66.2227 81.0304 66.4266L82.4639 67.8214ZM83.3951 65.234V64.91H81.3951V65.234H83.3951ZM83.3951 64.91C83.3951 64.7765 83.4004 64.5901 83.412 64.3456L81.4143 64.2504C81.4019 64.5099 81.3951 64.7315 81.3951 64.91H83.3951ZM83.412 64.3456C83.4238 64.0976 83.435 63.9227 83.445 63.8125L81.4532 63.6315C81.4393 63.7853 81.4265 63.9944 81.4143 64.2504L83.412 64.3456ZM82.4491 62.722H82.3771V64.722H82.4491V62.722ZM81.536 63.1812C81.3013 63.5463 81.0269 63.787 80.7147 63.9392L81.5916 65.7368C82.2634 65.409 82.805 64.9057 83.2183 64.2628L81.536 63.1812ZM80.7327 63.9307C80.3933 64.088 79.9768 64.18 79.4611 64.18V66.18C80.2175 66.18 80.929 66.044 81.5736 65.7453L80.7327 63.9307ZM79.4611 64.18C78.5093 64.18 77.8509 63.8566 77.3641 63.2439L75.7982 64.4881C76.7034 65.6274 77.965 66.18 79.4611 66.18V64.18ZM77.3734 63.2558C76.8689 62.6009 76.5551 61.6142 76.5551 60.176H74.5551C74.5551 61.8818 74.9253 63.3551 75.7889 64.4762L77.3734 63.2558ZM76.5551 60.176C76.5551 58.753 76.8676 57.7617 77.3773 57.0911L75.785 55.8809C74.9267 57.0103 74.5551 58.479 74.5551 60.176H76.5551ZM77.3761 57.0927C77.8687 56.4472 78.5247 56.118 79.4611 56.118V54.118C77.9495 54.118 76.6856 54.7008 75.7862 55.8793L77.3761 57.0927ZM79.8571 55.702C78.7866 55.702 77.8875 56.1525 77.2842 57.0397L78.9381 58.1643C79.1508 57.8515 79.4157 57.702 79.8571 57.702V55.702ZM77.2765 57.0512C76.7274 57.8832 76.5171 58.9728 76.5171 60.194H78.5171C78.5171 59.1592 78.7029 58.5208 78.9457 58.1528L77.2765 57.0512ZM76.5171 60.194C76.5171 61.4131 76.7266 62.5023 77.2817 63.3266L78.9406 62.2094C78.7037 61.8577 78.5171 61.2309 78.5171 60.194H76.5171ZM77.2896 63.3381C77.9033 64.2226 78.82 64.65 79.8931 64.65V62.65C79.4063 62.65 79.135 62.4894 78.9327 62.1979L77.2896 63.3381ZM79.8931 64.65C80.9496 64.65 81.9329 64.3614 82.5991 63.5776L81.0752 62.2824C80.9254 62.4586 80.6127 62.65 79.8931 62.65V64.65ZM82.5977 63.5793C83.2492 62.8161 83.4671 61.7241 83.4671 60.536H81.4671C81.4671 61.5559 81.2651 62.0599 81.0766 62.2807L82.5977 63.5793ZM83.4671 60.536V60.176H81.4671V60.536H83.4671ZM83.4671 60.176C83.4671 58.8758 83.2558 57.7071 82.6265 56.8981L81.0478 58.1259C81.2585 58.3969 81.4671 59.0042 81.4671 60.176H83.4671ZM82.6265 56.8981C81.9606 56.0419 80.9603 55.702 79.8571 55.702V57.702C80.554 57.702 80.8737 57.9021 81.0478 58.1259L82.6265 56.8981ZM89.0033 51.86L88.3893 52.6494V52.6494L89.0033 51.86ZM89.0033 53.552L89.6172 54.3414L89.6305 54.331L89.6434 54.3202L89.0033 53.552ZM87.4552 53.552L86.7936 54.3018L86.8169 54.3223L86.8413 54.3414L87.4552 53.552ZM87.4552 51.86L86.8413 51.0706L86.8303 51.0792L86.8195 51.0881L87.4552 51.86ZM89.1833 55.298H90.1833V54.298H89.1833V55.298ZM89.1833 65V66H90.1833V65H89.1833ZM87.2752 65H86.2752V66H87.2752V65ZM87.2752 55.298V54.298H86.2752V55.298H87.2752ZM88.2472 52.608C88.3254 52.608 88.3585 52.6254 88.3893 52.6494L89.6172 51.0706C89.216 50.7586 88.7451 50.608 88.2472 50.608V52.608ZM88.3893 52.6494C88.367 52.632 88.348 52.6118 88.3335 52.5917C88.3193 52.572 88.3135 52.558 88.3124 52.5551C88.3115 52.5528 88.3154 52.5623 88.3195 52.5877C88.3235 52.6132 88.3273 52.6519 88.3273 52.706H90.3273C90.3273 52.1456 90.1716 51.5018 89.6172 51.0706L88.3893 52.6494ZM88.3273 52.706C88.3273 52.7556 88.3237 52.7911 88.3199 52.8148C88.3161 52.8383 88.3123 52.8481 88.3124 52.8479C88.3127 52.8471 88.3165 52.8377 88.3263 52.8237C88.3363 52.8094 88.349 52.7955 88.3631 52.7838L89.6434 54.3202C90.1628 53.8874 90.3273 53.2722 90.3273 52.706H88.3273ZM88.3893 52.7626C88.3585 52.7866 88.3254 52.804 88.2472 52.804V54.804C88.7451 54.804 89.216 54.6534 89.6172 54.3414L88.3893 52.7626ZM88.2472 52.804C88.1249 52.804 88.0855 52.7753 88.0692 52.7626L86.8413 54.3414C87.257 54.6647 87.7456 54.804 88.2472 54.804V52.804ZM88.1169 52.8022C88.1329 52.8163 88.1458 52.8316 88.1551 52.8457C88.1641 52.8593 88.1668 52.8673 88.1661 52.8654C88.1639 52.8592 88.1493 52.813 88.1493 52.706H86.1493C86.1493 53.255 86.2975 53.864 86.7936 54.3018L88.1169 52.8022ZM88.1493 52.706C88.1493 52.6493 88.1529 52.6078 88.1572 52.5791C88.1615 52.5506 88.166 52.538 88.1661 52.5376C88.1661 52.5376 88.165 52.5407 88.1621 52.5464C88.1593 52.5521 88.1548 52.5601 88.1483 52.5697C88.1347 52.5897 88.1155 52.6117 88.091 52.6319L86.8195 51.0881C86.2888 51.5251 86.1493 52.1631 86.1493 52.706H88.1493ZM88.0692 52.6494C88.0855 52.6367 88.1249 52.608 88.2472 52.608V50.608C87.7456 50.608 87.257 50.7473 86.8413 51.0706L88.0692 52.6494ZM88.1833 55.298V65H90.1833V55.298H88.1833ZM89.1833 64H87.2752V66H89.1833V64ZM88.2752 65V55.298H86.2752V65H88.2752ZM87.2752 56.298H89.1833V54.298H87.2752V56.298ZM99.6855 55.964L100.37 55.2354L99.6855 55.964ZM100.586 65V66H101.586V65H100.586ZM98.6955 65H97.6955V66H98.6955V65ZM94.0875 65V66H95.0875V65H94.0875ZM92.1795 65H91.1795V66H92.1795V65ZM92.1795 55.298V54.298H91.1795V55.298H92.1795ZM93.6915 55.298L94.6705 55.094L94.5047 54.298H93.6915V55.298ZM93.9615 56.594L92.9826 56.798L93.1484 57.594H93.9615V56.594ZM94.0695 56.594V57.594H94.6266L94.9198 57.1204L94.0695 56.594ZM95.3475 55.478L94.9488 54.5609L94.9414 54.5642L95.3475 55.478ZM97.0935 56.118C98.0624 56.118 98.6455 56.3588 99.0006 56.6926L100.37 55.2354C99.5255 54.4412 98.3807 54.118 97.0935 54.118V56.118ZM99.0006 56.6926C99.3157 56.9888 99.5855 57.5686 99.5855 58.682H101.586C101.586 57.2994 101.255 56.0672 100.37 55.2354L99.0006 56.6926ZM99.5855 58.682V65H101.586V58.682H99.5855ZM100.586 64H98.6955V66H100.586V64ZM99.6955 65V58.952H97.6955V65H99.6955ZM99.6955 58.952C99.6955 58.0708 99.5042 57.2232 98.9464 56.59C98.3673 55.9326 97.5529 55.684 96.6975 55.684V57.684C97.1742 57.684 97.3588 57.8134 97.4457 57.912C97.5539 58.0348 97.6955 58.3212 97.6955 58.952H99.6955ZM96.6975 55.684C95.5198 55.684 94.4279 56.0396 93.8005 57.0314L95.4906 58.1006C95.6072 57.9164 95.8833 57.684 96.6975 57.684V55.684ZM93.8005 57.0314C93.2841 57.8475 93.0875 58.9121 93.0875 60.104H95.0875C95.0875 59.0879 95.263 58.4605 95.4906 58.1006L93.8005 57.0314ZM93.0875 60.104V65H95.0875V60.104H93.0875ZM94.0875 64H92.1795V66H94.0875V64ZM93.1795 65V55.298H91.1795V65H93.1795ZM92.1795 56.298H93.6915V54.298H92.1795V56.298ZM92.7126 55.502L92.9826 56.798L94.9405 56.39L94.6705 55.094L92.7126 55.502ZM93.9615 57.594H94.0695V55.594H93.9615V57.594ZM94.9198 57.1204C95.1264 56.7866 95.3979 56.5499 95.7537 56.3918L94.9414 54.5642C94.2172 54.8861 93.6367 55.3934 93.2193 56.0676L94.9198 57.1204ZM95.7463 56.3951C96.1703 56.2107 96.6164 56.118 97.0935 56.118V54.118C96.3467 54.118 95.6288 54.2653 94.9488 54.5609L95.7463 56.3951Z" fill="black"/>
</svg>
