<svg width="106" height="35" viewBox="0 0 106 35" fill="none" xmlns="http://www.w3.org/2000/svg">
<g filter="url(#filter0_d_479_3034)">
<path d="M18.5185 1V14.1719L9.15954 1H5V25.264H10.5461V12.0921L19.905 25.264H24.0646V1H18.5185Z" fill="white"/>
<path d="M35.5312 25.7493C40.6266 25.7493 44.7168 21.763 44.7168 16.5983C44.7168 11.4335 40.6266 7.44729 35.5312 7.44729C30.4357 7.44729 26.3455 11.4335 26.3455 16.5983C26.3455 21.763 30.4357 25.7493 35.5312 25.7493ZM35.5312 20.6885C33.2781 20.6885 31.5449 19.0593 31.5449 16.5983C31.5449 14.1372 33.2781 12.5081 35.5312 12.5081C37.7843 12.5081 39.5174 14.1372 39.5174 16.5983C39.5174 19.0593 37.7843 20.6885 35.5312 20.6885Z" fill="white"/>
<path d="M63.2866 1H45.2619V6.33808H51.5012V25.264H57.0473V6.33808H63.2866V1Z" fill="white"/>
<path d="M74.1734 7.93257V9.56172C73.0295 8.24453 71.3311 7.44729 69.0087 7.44729C64.4678 7.44729 60.7242 11.4335 60.7242 16.5983C60.7242 21.763 64.4678 25.7493 69.0087 25.7493C71.3311 25.7493 73.0295 24.952 74.1734 23.6348V25.264H79.3728V7.93257H74.1734ZM70.0485 20.8271C67.6568 20.8271 65.9237 19.198 65.9237 16.5983C65.9237 13.9986 67.6568 12.3694 70.0485 12.3694C72.4403 12.3694 74.1734 13.9986 74.1734 16.5983C74.1734 19.198 72.4403 20.8271 70.0485 20.8271Z" fill="white"/>
<path d="M92.7156 7.44729C90.3932 7.44729 88.6947 8.24453 87.5508 9.56172V1H82.3514V25.264H87.5508V23.6348C88.6947 24.952 90.3932 25.7493 92.7156 25.7493C97.2564 25.7493 101 21.763 101 16.5983C101 11.4335 97.2564 7.44729 92.7156 7.44729ZM91.6757 20.8271C89.284 20.8271 87.5508 19.198 87.5508 16.5983C87.5508 13.9986 89.284 12.3694 91.6757 12.3694C94.0674 12.3694 95.8006 13.9986 95.8006 16.5983C95.8006 19.198 94.0674 20.8271 91.6757 20.8271Z" fill="white"/>
<path d="M18.5185 0.5H18.0185V1V12.6049L9.56713 0.710396L9.41764 0.5H9.15954H5H4.5V1V25.264V25.764H5H10.5461H11.0461V25.264V13.6591L19.4974 25.5536L19.6469 25.764H19.905H24.0646H24.5646V25.264V1V0.5H24.0646H18.5185ZM63.7866 1V0.5H63.2866H45.2619H44.7619V1V6.33808V6.83808H45.2619H51.0012V25.264V25.764H51.5012H57.0473H57.5473V25.264V6.83808H63.2866H63.7866V6.33808V1ZM74.1734 7.43257H73.6734V7.93257V8.39879C72.4893 7.47194 70.9361 6.94729 69.0087 6.94729C64.1511 6.94729 60.2242 11.1998 60.2242 16.5983C60.2242 21.9967 64.1511 26.2493 69.0087 26.2493C70.9361 26.2493 72.4893 25.7246 73.6734 24.7978V25.264V25.764H74.1734H79.3728H79.8728V25.264V7.93257V7.43257H79.3728H74.1734ZM88.0508 25.264V24.7978C89.235 25.7246 90.7882 26.2493 92.7156 26.2493C97.5732 26.2493 101.5 21.9967 101.5 16.5983C101.5 11.1998 97.5732 6.94729 92.7156 6.94729C90.7882 6.94729 89.235 7.47194 88.0508 8.39878V1V0.5H87.5508H82.3514H81.8514V1V25.264V25.764H82.3514H87.5508H88.0508V25.264ZM35.5312 26.2493C40.8978 26.2493 45.2168 22.0441 45.2168 16.5983C45.2168 11.1524 40.8978 6.94729 35.5312 6.94729C30.1646 6.94729 25.8455 11.1524 25.8455 16.5983C25.8455 22.0441 30.1646 26.2493 35.5312 26.2493ZM35.5312 20.1885C33.5542 20.1885 32.0449 18.7832 32.0449 16.5983C32.0449 14.4134 33.5542 13.0081 35.5312 13.0081C37.5081 13.0081 39.0174 14.4134 39.0174 16.5983C39.0174 18.7832 37.5081 20.1885 35.5312 20.1885ZM70.0485 20.3271C68.9683 20.3271 68.0699 19.9612 67.4428 19.334C66.8165 18.7078 66.4237 17.7839 66.4237 16.5983C66.4237 15.4127 66.8165 14.4888 67.4428 13.8625C68.0699 13.2354 68.9683 12.8694 70.0485 12.8694C71.1288 12.8694 72.0272 13.2354 72.6543 13.8625C73.2806 14.4888 73.6734 15.4127 73.6734 16.5983C73.6734 17.7839 73.2806 18.7078 72.6543 19.334C72.0272 19.9612 71.1288 20.3271 70.0485 20.3271ZM91.6757 20.3271C90.5955 20.3271 89.697 19.9612 89.0699 19.334C88.4436 18.7078 88.0508 17.7839 88.0508 16.5983C88.0508 15.4127 88.4436 14.4888 89.0699 13.8625C89.697 13.2354 90.5955 12.8694 91.6757 12.8694C92.756 12.8694 93.6544 13.2354 94.2815 13.8625C94.9078 14.4888 95.3006 15.4127 95.3006 16.5983C95.3006 17.7839 94.9078 18.7078 94.2815 19.334C93.6544 19.9612 92.756 20.3271 91.6757 20.3271Z" stroke="black"/>
</g>
<defs>
<filter id="filter0_d_479_3034" x="0" y="0" width="106" height="34.749" filterUnits="userSpaceOnUse" color-interpolation-filters="sRGB">
<feFlood flood-opacity="0" result="BackgroundImageFix"/>
<feColorMatrix in="SourceAlpha" type="matrix" values="0 0 0 0 0 0 0 0 0 0 0 0 0 0 0 0 0 0 127 0" result="hardAlpha"/>
<feOffset dy="4"/>
<feGaussianBlur stdDeviation="2"/>
<feComposite in2="hardAlpha" operator="out"/>
<feColorMatrix type="matrix" values="0 0 0 0 0 0 0 0 0 0 0 0 0 0 0 0 0 0 0.25 0"/>
<feBlend mode="normal" in2="BackgroundImageFix" result="effect1_dropShadow_479_3034"/>
<feBlend mode="normal" in="SourceGraphic" in2="effect1_dropShadow_479_3034" result="shape"/>
</filter>
</defs>
</svg>
